<svg xmlns="http://www.w3.org/2000/svg" id="Layer_2" width="200px" height="48px" viewBox="0 0 271 65" enable-background="new 0 0 271 65" class="header" preserveAspectRatio="xMidYMid meet"><defs><style>.cls-1{fill:#00355f;}.cls-2{fill:#ffcb00;}</style></defs><title/><path transform="translate(-75.80406 -108.09562)" d="M186.1694,158.9336h-7.1367a0.09274,0.09274,0,0,1-.0752-0.0293l-6.1474-7.5059-6.1563,7.5059a0.09168,0.09168,0,0,1-.0723.0293h-5.7168a0.08653,0.08653,0,0,1-.082-0.0508,0.08032,0.08032,0,0,1,.0098-0.0918l9.0635-11.125-8.962-11.0254a0.0976,0.0976,0,0,1-.0097-0.0996,0.09981,0.09981,0,0,1,.0801-0.0566h7.1386a0.08265,0.08265,0,0,1,.0674.0449l5.3975,6.6875,5.4941-6.6934a0.08682,0.08682,0,0,1,.0703-0.039h5.8203a0.10324,0.10324,0,0,1,.0821.0566,0.10211,0.10211,0,0,1-.0118.0996l-8.5058,10.209,9.7187,11.9414a0.07776,0.07776,0,0,1,.0118.0918,0.08322,0.08322,0,0,1-.0782.0508h0Z" class="cls-1"/><path transform="translate(-75.80406 -108.09562)" d="M235.18509,149.1172a0.096,0.096,0,0,1-.0782.0391h-16.3398c0.33591,3.8027,2.8057,5.9707,6.8105,5.9707,2.4629,0,5.0782-.8399,8.7735-2.8047a0.09527,0.09527,0,0,1,.1347.0918l-0.0097,5.0195a0.082,0.082,0,0,1-.0537.0781,26.65338,26.65338,0,0,1-9.6016,2.4346h0a12.18613,12.18613,0,0,1,0-24.3721c6.4199,0,10.5439,4.3242,10.5439,10.2676C235.36469,146.8047,235.19289,149.0449,235.18509,149.1172Zm-10.3643-8.6777c-3.1592,0-5.3232,1.916-5.9443,5.2597h10.7627v-0.2187a4.8839,4.8839,0,0,0-4.8184-5.041h0Z" class="cls-1"/><path transform="translate(-75.80406 -108.09562)" d="M265.44679,158.9336a0.08518,0.08518,0,0,1-.09379-0.0898V136.5762a0.08791,0.08791,0,0,1,.07419-0.086h5.9063a0.08528,0.08528,0,0,1,.0713.086v22.2676a0.08279,0.08279,0,0,1-.0869.0898h-5.8711Zm2.9394-27.0801a3.61286,3.61286,0,0,1-3.6347-3.5801,3.63406,3.63406,0,1,1,7.26751,0,3.61058,3.61058,0,0,1-3.63281,3.5801h0Z" class="cls-1"/><path transform="translate(-75.80406 -108.09562)" d="M198.5698,135.5781a15.5829,15.5829,0,0,0-5.1074.9063h-5.873a0.09085,0.09085,0,0,0-.0879.0918v36.5107a13.54563,13.54563,0,0,0,6.0644-2.3769l-0.0039-11.1036a26.74661,26.74661,0,0,0,3.793.3399c8.04879,0,13.25579-4.8193,13.25579-12.2803C210.61079,140.5488,205.65379,135.5781,198.5698,135.5781Zm-1.5996,20.0039a12.93181,12.93181,0,0,1-3.40819-.4824l0.0078-14.2871a12.93926,12.93926,0,0,1,4.0078-.6855c4.0879,0,6.8379,3.0156,6.8379,7.5039C204.41549,152.4629,201.49069,155.582,196.9702,155.582Z" class="cls-1"/><path transform="translate(-75.80406 -108.09562)" d="M254.70069,124.6992v11.6563a16.80268,16.80268,0,0,0-4.7715-.7246,12.01747,12.01747,0,0,0-12.2881,12.289c0,6.9688,4.6621,12.0264,11.0752,12.0264a14.24437,14.24437,0,0,0,6.752-1.8135l-0.0108,2.0147a13.59137,13.59137,0,0,0,5.3018-2.253v-35.58A13.09029,13.09029,0,0,0,254.70069,124.6992Zm0,29.0371a10.83953,10.83953,0,0,1-5.0264,1.4219c-3.6435,0-5.8271-2.5742-5.8271-6.8867,0-4.9805,2.789-8.209,7.0976-8.209a8.82514,8.82514,0,0,1,3.7559.9238v12.75Z" class="cls-1"/><path transform="translate(-75.80406 -108.09562)" d="M297.92239,136.2207a0.25809,0.25809,0,0,0-.2569-0.2519l-4.7676.0097a0.258,0.258,0,0,0-.2587.2559v0.8105H292.52a14.60064,14.60064,0,0,0-5.93261-1.414c-6.6016,0-11.7803,5.4765-11.7803,12.4863,0,7.084,4.6328,11.8291,11.5283,11.8291a7.5709,7.5709,0,0,0,6.4161-2.6709v2.8662a13.73337,13.73337,0,0,0,5.164-2.2568ZM291.853,153.6875a9.54648,9.54648,0,0,1-4.66791,1.5254c-3.9024,0-6.2344-2.5703-6.2344-6.8926,0-4.9101,2.748-8.2109,6.8437-8.2109a9.02247,9.02247,0,0,1,4.05861,1.2832v12.2949Z" class="cls-1"/><path transform="translate(-75.80406 -108.09562)" d="M144.5522,153.2891l14.7832-.002a13.34425,13.34425,0,0,1-2.0634,5.5567H141.8901a3.65933,3.65933,0,0,1-3.6152-3.3047c-0.0078-.0254-0.0205-0.0508-0.0254-0.0743V126.3047a0.68329,0.68329,0,0,1,.0254-0.0703,3.663,3.663,0,0,1,3.6152-3.3125c0.0606,0,.1162.0097,0.1719,0.0097l17.2412-.0058a13.48366,13.48366,0,0,1-2.0635,5.5976H144.5522v7.9356h12.5586a0.09123,0.09123,0,0,1,.0938.0859v5.5078a0.09125,0.09125,0,0,1-.0938.086H144.5522v11.1504Z" class="cls-1"/><path transform="translate(-75.80406 -108.09562)" d="M303.812,153.2832a3.21354,3.21354,0,1,1,0,6.4268A3.21348,3.21348,0,0,1,303.812,153.2832Z" class="cls-1"/><path transform="translate(-75.80406 -108.09562)" d="M309.90189,158.8203a0.08257,0.08257,0,0,1-.08989-0.0879V136.5449a0.08886,0.08886,0,0,1,.07419-0.0898h5.8809a0.08877,0.08877,0,0,1,.0781.0898v22.1875a0.0878,0.0878,0,0,1-.0918.0879h-5.8515Zm2.9365-26.9883a3.5966,3.5966,0,0,1-3.628-3.5625,3.62346,3.62346,0,1,1,7.2461,0,3.59436,3.59436,0,0,1-3.6181,3.5625h0Z" class="cls-1"/><path transform="translate(-75.80406 -108.09562)" d="M323.314,141.6973h-3.53911v-4.9082H323.314v-6.6817l5.97649-1.0625v7.7442h6.1758v4.9082h-6.1758v8.7011c0,4.3145,1.3614,4.836,4.6602,6.1153l-2.4531,3.5498a12.101,12.101,0,0,1-5.9981-2.4658c-2.0683-1.7657-2.18549-4.1973-2.18549-7.8321v-8.0683Z" class="cls-1"/><path transform="translate(-75.80406 -108.09562)" d="M340.86079,137.3574h-1.3369v3.6797h-0.8467v-3.6797h-1.3339V136.668h3.5175v0.6894Zm3.3164,2.4063,1.1895-3.0957h1.2168v4.3691h-0.793v-3.416H345.769l-1.30461,3.416h-0.5918l-1.3028-3.416h-0.0215v3.416h-0.7968V136.668h1.2304Z" class="cls-1"/><path transform="translate(-75.80406 -108.09562)" d="M126.1714,154.1333a2.83026,2.83026,0,1,0,2.769,2.8345A2.74617,2.74617,0,0,0,126.1714,154.1333Zm0,5.3818a2.55543,2.55543,0,1,1,2.3555-2.5473A2.37235,2.37235,0,0,1,126.1714,159.5151Z" class="cls-1"/><path transform="translate(-75.80406 -108.09562)" d="M127.4858,156.2515c0-.6783-0.4155-0.9629-1.2221-0.9629h-1.271v3.3501h0.5517v-1.4331h0.5147l0.8681,1.4331h0.6216l-0.938-1.4702A0.86041,0.86041,0,0,0,127.4858,156.2515Zm-1.9809.4824v-1.0308h0.6968c0.353,0,.77.0498,0.77,0.4785,0,0.5122-.3853.5523-0.8223,0.5523h-0.6445Z" class="cls-1"/><path transform="translate(-75.80406 -108.09562)" d="M107.04,128.6064l-1.0752-3.0439-9.123-12.1899,1.6382-.4078,15.7304,13.5962,9.2554-2.6489a13.36223,13.36223,0,0,1,3.2627-.3335A26.70154,26.70154,0,0,0,76.1069,138.812l22.1709-7.7007Z" class="cls-1"/><path transform="translate(-75.80406 -108.09562)" d="M127.7031,125.9805a14.28146,14.28146,0,0,1-3.1928,1.5991l-9.2759,2.6489-6.1885,19.8667-1.6074.5225,1.3095-15.1734-0.7309-3.1518-8.6904,2.4824-22.9761,5.4087A26.70128,26.70128,0,1,0,127.7031,125.9805Z" class="cls-1"/><path transform="translate(-75.80406 -108.09562)" d="M108.0171,132.2925l0.7309,3.1518-1.3095,15.1734,1.6074-.5225,6.1885-19.8667,9.2759-2.6489a14.28146,14.28146,0,0,0,3.1928-1.5991q-0.4299-1.22385-.9746-2.4019a13.36223,13.36223,0,0,0-3.2627.3335l-9.2554,2.6489L98.48,112.9648l-1.6382.4078,9.123,12.1899,1.0752,3.0439-8.7622,2.5049L76.1069,138.812c0.0703,0.4595.1499,0.9165,0.2437,1.3716l22.9761-5.4087Z" class="cls-2"/></svg>